<svg xmlns="http://www.w3.org/2000/svg" xmlns:xlink="http://www.w3.org/1999/xlink" viewBox="-17461 -22534 60 60"><defs><style>.a{clip-path:url(#b);}.b{fill:#efeff4;}</style><clipPath id="b"><rect x="-17461" y="-22534" width="60" height="60"/></clipPath></defs><g id="a" class="a"><g transform="translate(-94)"><g transform="translate(-17364.783 -22526)"><path class="b" d="M31.643,4H20.1V41.174H31.643c2.152,0,3.913-.783,3.913-1.957V5.957C35.557,4.783,33.8,4,31.643,4Z" transform="translate(19.226 3.826)"/><path class="b" d="M13.109,4H3.326C1.37,4,0,4.783,0,5.957V39.217c0,1.174,1.37,1.957,3.326,1.957h9.783Z" transform="translate(0 3.826)"/><path class="b" d="M6,45H37.3V7.826H33.391V5.87A5.765,5.765,0,0,0,27.522,0H15.783a5.765,5.765,0,0,0-5.87,5.87V7.826H6ZM13.826,5.87a1.848,1.848,0,0,1,1.957-1.957H27.522A1.848,1.848,0,0,1,29.478,5.87V7.826H13.826Z" transform="translate(5.739)"/></g></g></g></svg>