<svg xmlns="http://www.w3.org/2000/svg" xmlns:xlink="http://www.w3.org/1999/xlink" viewBox="-17331 -22684 60 60"><defs><style>.a{clip-path:url(#b);}.b{fill:#efeff4;}</style><clipPath id="b"><rect x="-17331" y="-22684" width="60" height="60"/></clipPath></defs><g id="a" class="a"><path class="b" d="M25.5,15a5,5,0,0,0,5-5,4.759,4.759,0,0,0-.725-2.575L25.5,0,21.225,7.425A4.759,4.759,0,0,0,20.5,10,5.015,5.015,0,0,0,25.5,15ZM37,39.975,34.325,37.3l-2.7,2.675a8.858,8.858,0,0,1-12.225,0L16.725,37.3,14,39.975A8.587,8.587,0,0,1,7.9,42.5,8.686,8.686,0,0,1,3,40.975V52.5A2.507,2.507,0,0,0,5.5,55h40A2.507,2.507,0,0,0,48,52.5V40.975A8.686,8.686,0,0,1,43.1,42.5,8.587,8.587,0,0,1,37,39.975ZM40.5,22.5H28v-5H23v5H10.5A7.49,7.49,0,0,0,3,30v3.85a4.908,4.908,0,0,0,4.9,4.9,4.8,4.8,0,0,0,3.45-1.425L16.7,32l5.325,5.325a5.014,5.014,0,0,0,6.925,0L34.3,32l5.325,5.325a4.84,4.84,0,0,0,3.45,1.425,4.908,4.908,0,0,0,4.9-4.9V30A7.453,7.453,0,0,0,40.5,22.5Z" transform="translate(-17326.5 -22681.5)"/></g></svg>