<svg xmlns="http://www.w3.org/2000/svg" xmlns:xlink="http://www.w3.org/1999/xlink" viewBox="-16291 -22894 60 60"><defs><style>.a{clip-path:url(#b);}.b{fill:#fff;}</style><clipPath id="b"><rect x="-16291" y="-22894" width="60" height="60"/></clipPath></defs><g id="a" class="a"><path class="b" d="M51,6H6a5.015,5.015,0,0,0-5,5V31a5.015,5.015,0,0,0,5,5H51a5.015,5.015,0,0,0,5-5V11A5.015,5.015,0,0,0,51,6ZM26,23.5H18.5V31h-5V23.5H6v-5h7.5V11h5v7.5H26Zm11.25,5A3.75,3.75,0,1,1,41,24.75,3.745,3.745,0,0,1,37.25,28.5Zm10-7.5A3.75,3.75,0,1,1,51,17.25,3.745,3.745,0,0,1,47.25,21Z" transform="translate(-16289.5 -22885)"/></g></svg>