<svg xmlns="http://www.w3.org/2000/svg" xmlns:xlink="http://www.w3.org/1999/xlink" viewBox="-17461 -22894 60 60"><defs><style>.a{clip-path:url(#b);}.b{fill:#fff;}</style><clipPath id="b"><rect x="-17461" y="-22894" width="60" height="60"/></clipPath></defs><g id="a" class="a"><path class="b" d="M39.157,17.525l-7.7-7.213V1.254A2.2,2.2,0,0,0,29.215-.9H25.147A2.2,2.2,0,0,0,22.9,1.254V2.289L11.585-8.318a2.238,2.238,0,0,0-3.032,0L-19.254,17.747a2.022,2.022,0,0,0-.493,2.276,2.167,2.167,0,0,0,2.009,1.3h6.418V44.417a2.1,2.1,0,0,0,2.139,2.053h10.7V30.149H18.626V46.471h10.7a2.094,2.094,0,0,0,2.136-2.053V21.322h6.418a.192.192,0,0,1,.042,0,2.132,2.132,0,0,0,2.175-2.086,2.061,2.061,0,0,0-.935-1.712" transform="translate(-17441.092 -22883.092)"/></g></svg>