<svg xmlns="http://www.w3.org/2000/svg" xmlns:xlink="http://www.w3.org/1999/xlink" viewBox="-16941 -22894 60 60"><defs><style>.a{clip-path:url(#b);}.b{fill:#fff;}</style><clipPath id="b"><rect x="-16941" y="-22894" width="60" height="60"/></clipPath></defs><g id="a" class="a"><path class="b" d="M55.27,0H4.481A4.425,4.425,0,0,0,0,4.25v51.5A4.425,4.425,0,0,0,4.481,60H55.519A4.425,4.425,0,0,0,60,55.75V4.25A4.844,4.844,0,0,0,55.27,0Zm-37.1,50.25H9.212v-27h8.963ZM13.693,19.5h0a4.653,4.653,0,0,1-4.979-4.75C8.465,12,10.456,10,13.693,10a4.653,4.653,0,0,1,4.979,4.75A4.8,4.8,0,0,1,13.693,19.5ZM50.539,50.25H41.577V35.75c0-3.75-1.245-6.25-4.481-6.25a5.331,5.331,0,0,0-4.73,3.25A6.231,6.231,0,0,0,32.116,35V50.25H23.154v-27h8.963V27a9.123,9.123,0,0,1,8.216-4.5c5.975,0,10.456,3.75,10.456,12.25v15.5ZM32.116,27Z" transform="translate(-16941 -22894)"/></g></svg>