<svg xmlns="http://www.w3.org/2000/svg" xmlns:xlink="http://www.w3.org/1999/xlink" viewBox="-17201 -22894 60 60"><defs><style>.a{clip-path:url(#b);}.b{fill:#fff;}</style><clipPath id="b"><rect x="-17201" y="-22894" width="60" height="60"/></clipPath></defs><g id="a" class="a"><path class="b" d="M121.966,10H66.1A2.053,2.053,0,0,0,64,12.1v43.85a2.053,2.053,0,0,0,2.1,2.1h55.563a2.053,2.053,0,0,0,2.1-2.1V12.1A1.69,1.69,0,0,0,121.966,10ZM73.01,16.307h42.048a2.141,2.141,0,0,1,1.8.9L94.034,32.225,71.208,16.908A3.22,3.22,0,0,1,73.01,16.307Zm42.048,35.44H73.01a2.053,2.053,0,0,1-2.1-2.1V24.116L92.232,38.532h0a4.269,4.269,0,0,0,1.8.6,3.22,3.22,0,0,0,1.8-.6h0L117.16,24.416V49.645C117.461,50.846,116.259,51.747,115.058,51.747Z" transform="translate(-17264.826 -22898)"/></g></svg>