<svg xmlns="http://www.w3.org/2000/svg" xmlns:xlink="http://www.w3.org/1999/xlink" viewBox="-17331 -22894 60 60"><defs><style>.a{clip-path:url(#b);}.b{fill:#fff;}</style><clipPath id="b"><rect x="-17331" y="-22894" width="60" height="60"/></clipPath></defs><g id="a" class="a"><path class="b" d="M10.011,14.239l9-4.687c1.334-.67,2-.67,3,0l9,9.038c.667.67.667,2.009.333,3.348l-4,7.365c-.667,1.339,2,5.021,9.335,12.051,7.335,7.365,11,10.377,12,9.373l7.335-4.017c1.334-.335,2.334-.67,3.334.335l9,9.038q1,1,0,3.013l-4.667,9.038c-.667.67-2,1.674-6,0-7.668-4.017-18.67-11.047-26.338-18.746l-1.334-1.339L28.681,46.71a107.191,107.191,0,0,1-18.67-26.446C8.344,16.247,9.011,14.908,10.011,14.239Z" transform="translate(-17340.125 -22903.051)"/></g></svg>