<svg xmlns="http://www.w3.org/2000/svg" xmlns:xlink="http://www.w3.org/1999/xlink" viewBox="-16551 -22894 60 60"><defs><style>.a{fill:#fff;}.b{clip-path:url(#d);}.c{clip-path:url(#a);}.d{clip-path:url(#b);}.e{fill:none;}</style><clipPath id="a"><path class="a" d="M0,0H60V60H0Z"/></clipPath><clipPath id="b"><path d="M0,0H60V60H0Z"/></clipPath><clipPath id="d"><rect x="-16551" y="-22894" width="60" height="60"/></clipPath></defs><g id="c" class="b"><g class="c" transform="translate(-16551 -22894)"><path class="a" d="M3.49,42.145h47.5v5H3.49Zm48.925-23.4a3.741,3.741,0,0,0-4.6-2.65L34.54,19.645,17.29,3.57,12.465,4.845,22.815,22.77,10.39,26.095l-4.925-3.85L1.84,23.22l4.55,7.9,1.925,3.325,4-1.075L25.59,29.82l10.875-2.9L49.74,23.37A3.805,3.805,0,0,0,52.415,18.745Z" transform="translate(2.76 5.355)"/></g><g class="d" transform="translate(-16551 -22894)"><path class="e" d="M0,0H60V60H0Z"/></g></g></svg>