<svg xmlns="http://www.w3.org/2000/svg" xmlns:xlink="http://www.w3.org/1999/xlink" viewBox="-16421 -22894 60 60"><defs><style>.a{clip-path:url(#b);}.b{fill:#fff;}</style><clipPath id="b"><rect x="-16421" y="-22894" width="60" height="60"/></clipPath></defs><g id="a" class="a"><path class="b" d="M48.425,34.15,52,30.575,48.425,27,39.5,35.925,18.075,14.5,27,5.575,23.425,2,19.85,5.575,16.275,2l-5.35,5.35L7.35,3.775,3.775,7.35,7.35,10.925,2,16.275,5.575,19.85,2,23.425,5.575,27,14.5,18.075,35.925,39.5,27,48.425,30.575,52l3.575-3.575L37.725,52l5.35-5.35,3.575,3.575,3.575-3.575L46.65,43.075,52,37.725Z" transform="translate(-16418 -22891)"/></g></svg>